<svg id="Layer_1" data-name="Layer 1" xmlns="http://www.w3.org/2000/svg" viewBox="0 0 817.29 938.87"><defs><style>.cls-1{fill:#fefefe;}</style></defs><path class="cls-1" d="M518.3,19.8A47.86,47.86,0,0,1,553.46,13c15.78,3,29.3,12.53,41.33,22.71C617.11,55.55,635.94,81,643,110.4c10.93,60.21,10.25,121.71,8.24,182.63-.87,21-1.14,42.09-3.39,63-4.29,41.43-13.22,82.21-22.49,122.76-4.51,11.25-14.91,19.25-25.51,24.48A18.52,18.52,0,0,1,579.49,501c-10-7.94-15.76-19.6-24.06-29-1.9-1.79-1.79-4.55-2.25-6.91-6.41-40.58-15.11-81-16.94-122.1-.84-22.11,13.1-40.83,18-61.68-1.89-6.81-7.35-11.77-13.47-14.89,1.54-9.67,8.37-17.62,9.53-27.37,1-15.75.09-31.54-1-47.27-3.76,12.62-8.21,25.12-10,38.21-3.38,16.8-9.94,32.8-17.67,48-29.47,56-73,102.64-108.41,154.64-19.85,29.23-38.52,60.53-45.31,95.65-1.48,5.27,3.23,9.38,6.42,12.88,8,7.51,17.31,14.52,28.2,16.88a1249.9,1249.9,0,0,1,215.16,28.73c36.5,8.38,72.72,18.52,107.42,32.72,27.4,11.38,54.34,25.27,76.1,45.77,21.72,20,40.63,45.17,46,74.81,4.26,22.61-1.56,46.36-14,65.47-14.16,22.23-35.42,38.62-57.33,52.66-55,36-116.61,61.62-180.65,76.25C523.27,951,448.79,954.3,375.48,948c-79.49-7.21-156.82-28.07-233.79-48.25-11.59-3.25-23.82-5.22-34.23-11.65C94.75,880.74,84.85,867.78,83.24,853c-2.6-20.54,10.64-40.49,28.43-49.74,11.36-3.07,23.13,1,33.83,4.79,30.93,12.71,57.19,35.42,89.8,44.3,27.41,6.24,55.29,10.3,83.23,13.32-3.42-3.39-5.42-7.79-7.49-12.06C232.1,698.77,155.71,542.68,78.37,387.06,64.9,368,52,348.25,40.83,327.67c-5.21-10.1-10.06-21-9.58-32.64.38-10.81,6.15-20.44,12.4-28.9,8.88-11.66,19.11-22.19,29.14-32.83,5.15-5.76,10.81-11.86,18.84-13.15,20.38-3.91,41.64,4.37,57,17.74,8.6,7.24,13.33,17.62,18.8,27.17q44.88,79.6,89.52,159.32c14.16-28,29.65-55.24,46.05-82C360.38,247.26,421.18,154.2,481.23,60.67,491.5,45.42,502.49,29.79,518.3,19.8ZM429.45,669.16c-12.52.15-25,.45-37.55.36,33,62.81,61,128,91.14,192.15,61-10.19,120.43-30.45,174.47-60.61a29.26,29.26,0,0,0,9.29-22c-9.73-25-23.46-48.25-33-73.34-5.84-16.86-14.33-34.23-29.95-44-11.32-7.17-25.25-9.06-38.39-7.66C520.13,659.08,475.13,667.74,429.45,669.16Z" transform="translate(-31.22 -12.1)"/></svg>